<svg width="196" height="55" viewBox="0 0 196 55" fill="none" xmlns="http://www.w3.org/2000/svg">
<mask id="path-1-outside-1" maskUnits="userSpaceOnUse" x="0" y="0" width="196" height="55" fill="black">
<rect fill="white" width="196" height="55"/>
<path d="M7 37.0219V8.81951H10.1014V34.458H22.7966V37.0219H7Z"/>
<path d="M89.3841 17.6689V36.2775C89.3841 38.0143 89.0258 39.5582 88.309 40.909C87.5922 42.2874 86.586 43.3626 85.2903 44.1345C83.9945 44.9064 82.5196 45.2924 80.8655 45.2924H72.8432V42.7285H80.8655C82.5472 42.7285 83.9118 42.122 84.9594 40.909C86.0346 39.696 86.5722 38.1522 86.5722 36.2775V34.1686C85.7727 35.2713 84.794 36.1397 83.6362 36.7738C82.4783 37.3803 81.2101 37.6835 79.8317 37.6835C77.9846 37.6835 76.3306 37.2424 74.8694 36.3602C73.4083 35.4781 72.2642 34.2513 71.4372 32.6799C70.6101 31.1085 70.1966 29.3165 70.1966 27.3041C70.1966 25.3191 70.5963 23.5548 71.3958 22.0109C72.2229 20.4396 73.3532 19.2128 74.7867 18.3306C76.2478 17.4484 77.9019 17.0073 79.749 17.0073C81.155 17.0073 82.4369 17.3243 83.5948 17.9584C84.7802 18.5649 85.7727 19.4333 86.5722 20.5636V17.6689H89.3841ZM79.749 35.1197C81.0723 35.1197 82.244 34.7888 83.264 34.1272C84.3116 33.4656 85.1248 32.542 85.7038 31.3566C86.2827 30.1712 86.5722 28.8341 86.5722 27.3454C86.5722 25.8567 86.2827 24.5197 85.7038 23.3342C85.1248 22.1488 84.3116 21.2252 83.264 20.5636C82.244 19.902 81.0723 19.5711 79.749 19.5711C78.4533 19.5711 77.2954 19.902 76.2754 20.5636C75.2554 21.2252 74.4559 22.1488 73.877 23.3342C73.298 24.4921 73.0086 25.8154 73.0086 27.3041C73.0086 28.8203 73.298 30.1712 73.877 31.3566C74.4559 32.542 75.2554 33.4656 76.2754 34.1272C77.2954 34.7888 78.4533 35.1197 79.749 35.1197Z"/>
<path d="M149.522 17.0073C151.369 17.0073 153.009 17.4484 154.443 18.3306C155.904 19.2128 157.034 20.4396 157.834 22.0109C158.661 23.5548 159.074 25.3191 159.074 27.3041C159.074 29.3165 158.661 31.1085 157.834 32.6799C157.007 34.2513 155.863 35.4781 154.402 36.3602C152.94 37.2424 151.286 37.6835 149.439 37.6835C148.061 37.6835 146.793 37.3803 145.635 36.7738C144.477 36.1397 143.498 35.2713 142.699 34.1686V37.0219H139.887V7H142.699V20.5636C143.498 19.4333 144.477 18.5649 145.635 17.9584C146.82 17.3243 148.116 17.0073 149.522 17.0073ZM149.522 35.1197C150.818 35.1197 151.976 34.7888 152.996 34.1272C154.016 33.4656 154.815 32.542 155.394 31.3566C155.973 30.1712 156.262 28.8203 156.262 27.3041C156.262 25.8154 155.973 24.4921 155.394 23.3342C154.815 22.1488 154.016 21.2252 152.996 20.5636C151.976 19.902 150.818 19.5711 149.522 19.5711C148.199 19.5711 147.013 19.902 145.966 20.5636C144.946 21.2252 144.146 22.1488 143.567 23.3342C142.988 24.5197 142.699 25.8567 142.699 27.3454C142.699 28.8341 142.988 30.1712 143.567 31.3566C144.146 32.542 144.946 33.4656 145.966 34.1272C147.013 34.7888 148.199 35.1197 149.522 35.1197Z"/>
<path d="M163.232 37.0219V7H166.044V37.0219H163.232Z"/>
<path d="M179.778 17.0073C181.515 17.0073 183.087 17.4346 184.493 18.2892C185.899 19.1438 187.001 20.3155 187.801 21.8042C188.6 23.2653 189 24.9056 189 26.7251C189 27.2489 188.986 27.6487 188.959 27.9243H173.038C173.148 29.9093 173.796 31.6047 174.982 33.0107C176.167 34.4167 177.78 35.1197 179.82 35.1197C181.474 35.1197 182.838 34.8164 183.914 34.2099C185.016 33.5758 185.899 32.7074 186.56 31.6047L188.793 33.0934C187.883 34.527 186.684 35.6573 185.196 36.4843C183.707 37.2838 181.943 37.6835 179.902 37.6835C178.028 37.6835 176.36 37.2424 174.899 36.3602C173.438 35.4781 172.294 34.2513 171.467 32.6799C170.639 31.1085 170.226 29.3303 170.226 27.3454C170.226 25.3605 170.626 23.5823 171.425 22.0109C172.252 20.4396 173.383 19.2128 174.816 18.3306C176.277 17.4484 177.931 17.0073 179.778 17.0073ZM186.188 25.6086C185.912 23.5961 185.237 22.0937 184.162 21.1012C183.087 20.0812 181.625 19.5711 179.778 19.5711C177.986 19.5711 176.512 20.1501 175.354 21.308C174.223 22.4383 173.507 23.8718 173.203 25.6086H186.188Z"/>
<path fill-rule="evenodd" clip-rule="evenodd" d="M26.2118 37.0219V17.6689H29.0237V20.5223C29.8232 19.4195 30.8019 18.5511 31.9598 17.9171C33.1176 17.3105 34.3858 17.0073 35.7642 17.0073C37.6113 17.0073 39.2654 17.4484 40.7265 18.3306C42.1876 19.2128 43.3317 20.4396 44.1588 22.0109C44.9858 23.5823 45.3993 25.3743 45.3993 27.3868C45.3993 29.3717 44.9996 31.1361 44.2001 32.6799C43.3731 34.2513 42.2428 35.4781 40.8092 36.3602C39.3481 37.2424 37.694 37.6835 35.8469 37.6835C34.4409 37.6835 33.159 37.3665 32.0011 36.7324C30.8157 36.1259 29.8232 35.2575 29.0237 34.1272V37.0219H26.2118ZM32.3319 20.5636C33.352 19.902 34.5236 19.5712 35.8469 19.5712C37.1426 19.5712 38.3005 19.902 39.3205 20.5636C40.3405 21.2252 41.14 22.1488 41.719 23.3342C42.2979 24.5197 42.5874 25.8705 42.5874 27.3868C42.5874 28.8755 42.2979 30.1987 41.719 31.3566C41.14 32.542 40.3405 33.4656 39.3205 34.1272C38.3005 34.7889 37.1426 35.1197 35.8469 35.1197C34.5236 35.1197 33.352 34.7889 32.3319 34.1272C31.2843 33.4656 30.4711 32.542 29.8921 31.3566C29.3132 30.1712 29.0237 28.8341 29.0237 27.3454C29.0237 25.8567 29.3132 24.5197 29.8921 23.3342C30.4711 22.1488 31.2843 21.2252 32.3319 20.5636Z"/>
<path d="M56.9593 37.0012C55.6084 37.0012 54.3679 36.7255 53.2376 36.1742C52.0797 35.6228 51.1699 34.8095 50.5083 33.7344C49.8191 32.6592 49.4745 31.3911 49.4745 29.9299V16.9866H52.2865V28.6894C52.2865 32.5214 53.9957 34.4374 57.4142 34.4374C59.3991 34.4374 60.8878 33.7344 61.8802 32.3284C62.8727 30.9224 63.3689 29.034 63.3689 26.6631V16.9866H66.1809V47.0085H63.3689V33.1141C62.7073 34.3546 61.8389 35.3058 60.7637 35.9674C59.661 36.6566 58.3928 37.0012 56.9593 37.0012Z"/>
<path d="M103.797 17.0073C105.148 17.0073 106.389 17.283 107.519 17.8343C108.677 18.3857 109.587 19.199 110.248 20.2741C110.938 21.3493 111.282 22.6174 111.282 24.0786V37.0219H108.47V25.3191C108.47 21.4871 106.761 19.5711 103.343 19.5711C101.358 19.5711 99.8689 20.2741 98.8765 21.6801C97.884 23.0861 97.3878 24.9745 97.3878 27.3454V37.0219H94.5758V7H97.3878V20.8944C98.0494 19.6539 98.9178 18.7028 99.993 18.0411C101.096 17.3519 102.364 17.0073 103.797 17.0073Z"/>
<path fill-rule="evenodd" clip-rule="evenodd" d="M134.654 17.6689V37.0219H131.842V34.1686C131.042 35.2713 130.064 36.1397 128.906 36.7738C127.748 37.3803 126.48 37.6835 125.101 37.6835C123.254 37.6835 121.6 37.2424 120.139 36.3602C118.678 35.4781 117.534 34.2513 116.707 32.6799C115.88 31.1085 115.466 29.3165 115.466 27.3041C115.466 25.3191 115.866 23.5548 116.665 22.0109C117.493 20.4396 118.623 19.2128 120.056 18.3306C121.517 17.4484 123.172 17.0073 125.019 17.0073C126.425 17.0073 127.707 17.3243 128.864 17.9584C130.05 18.5649 131.042 19.4333 131.842 20.5636V17.6689H134.654ZM128.534 34.1272C127.514 34.7888 126.342 35.1197 125.019 35.1197C123.723 35.1197 122.565 34.7888 121.545 34.1272C120.525 33.4656 119.726 32.542 119.147 31.3566C118.568 30.1712 118.278 28.8203 118.278 27.3041C118.278 25.8154 118.568 24.4921 119.147 23.3342C119.726 22.1488 120.525 21.2252 121.545 20.5636C122.565 19.902 123.723 19.5711 125.019 19.5711C126.342 19.5711 127.514 19.902 128.534 20.5636C129.581 21.2252 130.394 22.1488 130.973 23.3342C131.552 24.5197 131.842 25.8567 131.842 27.3454C131.842 28.8341 131.552 30.1712 130.973 31.3566C130.394 32.542 129.581 33.4656 128.534 34.1272Z"/>
</mask>
<path d="M7 37.0219V8.81951H10.1014V34.458H22.7966V37.0219H7Z" fill="#F5E747"/>
<path d="M89.3841 17.6689V36.2775C89.3841 38.0143 89.0258 39.5582 88.309 40.909C87.5922 42.2874 86.586 43.3626 85.2903 44.1345C83.9945 44.9064 82.5196 45.2924 80.8655 45.2924H72.8432V42.7285H80.8655C82.5472 42.7285 83.9118 42.122 84.9594 40.909C86.0346 39.696 86.5722 38.1522 86.5722 36.2775V34.1686C85.7727 35.2713 84.794 36.1397 83.6362 36.7738C82.4783 37.3803 81.2101 37.6835 79.8317 37.6835C77.9846 37.6835 76.3306 37.2424 74.8694 36.3602C73.4083 35.4781 72.2642 34.2513 71.4372 32.6799C70.6101 31.1085 70.1966 29.3165 70.1966 27.3041C70.1966 25.3191 70.5963 23.5548 71.3958 22.0109C72.2229 20.4396 73.3532 19.2128 74.7867 18.3306C76.2478 17.4484 77.9019 17.0073 79.749 17.0073C81.155 17.0073 82.4369 17.3243 83.5948 17.9584C84.7802 18.5649 85.7727 19.4333 86.5722 20.5636V17.6689H89.3841ZM79.749 35.1197C81.0723 35.1197 82.244 34.7888 83.264 34.1272C84.3116 33.4656 85.1248 32.542 85.7038 31.3566C86.2827 30.1712 86.5722 28.8341 86.5722 27.3454C86.5722 25.8567 86.2827 24.5197 85.7038 23.3342C85.1248 22.1488 84.3116 21.2252 83.264 20.5636C82.244 19.902 81.0723 19.5711 79.749 19.5711C78.4533 19.5711 77.2954 19.902 76.2754 20.5636C75.2554 21.2252 74.4559 22.1488 73.877 23.3342C73.298 24.4921 73.0086 25.8154 73.0086 27.3041C73.0086 28.8203 73.298 30.1712 73.877 31.3566C74.4559 32.542 75.2554 33.4656 76.2754 34.1272C77.2954 34.7888 78.4533 35.1197 79.749 35.1197Z" fill="#F5E747"/>
<path d="M149.522 17.0073C151.369 17.0073 153.009 17.4484 154.443 18.3306C155.904 19.2128 157.034 20.4396 157.834 22.0109C158.661 23.5548 159.074 25.3191 159.074 27.3041C159.074 29.3165 158.661 31.1085 157.834 32.6799C157.007 34.2513 155.863 35.4781 154.402 36.3602C152.94 37.2424 151.286 37.6835 149.439 37.6835C148.061 37.6835 146.793 37.3803 145.635 36.7738C144.477 36.1397 143.498 35.2713 142.699 34.1686V37.0219H139.887V7H142.699V20.5636C143.498 19.4333 144.477 18.5649 145.635 17.9584C146.82 17.3243 148.116 17.0073 149.522 17.0073ZM149.522 35.1197C150.818 35.1197 151.976 34.7888 152.996 34.1272C154.016 33.4656 154.815 32.542 155.394 31.3566C155.973 30.1712 156.262 28.8203 156.262 27.3041C156.262 25.8154 155.973 24.4921 155.394 23.3342C154.815 22.1488 154.016 21.2252 152.996 20.5636C151.976 19.902 150.818 19.5711 149.522 19.5711C148.199 19.5711 147.013 19.902 145.966 20.5636C144.946 21.2252 144.146 22.1488 143.567 23.3342C142.988 24.5197 142.699 25.8567 142.699 27.3454C142.699 28.8341 142.988 30.1712 143.567 31.3566C144.146 32.542 144.946 33.4656 145.966 34.1272C147.013 34.7888 148.199 35.1197 149.522 35.1197Z" fill="#F5E747"/>
<path d="M163.232 37.0219V7H166.044V37.0219H163.232Z" fill="#F5E747"/>
<path d="M179.778 17.0073C181.515 17.0073 183.087 17.4346 184.493 18.2892C185.899 19.1438 187.001 20.3155 187.801 21.8042C188.6 23.2653 189 24.9056 189 26.7251C189 27.2489 188.986 27.6487 188.959 27.9243H173.038C173.148 29.9093 173.796 31.6047 174.982 33.0107C176.167 34.4167 177.78 35.1197 179.82 35.1197C181.474 35.1197 182.838 34.8164 183.914 34.2099C185.016 33.5758 185.899 32.7074 186.56 31.6047L188.793 33.0934C187.883 34.527 186.684 35.6573 185.196 36.4843C183.707 37.2838 181.943 37.6835 179.902 37.6835C178.028 37.6835 176.36 37.2424 174.899 36.3602C173.438 35.4781 172.294 34.2513 171.467 32.6799C170.639 31.1085 170.226 29.3303 170.226 27.3454C170.226 25.3605 170.626 23.5823 171.425 22.0109C172.252 20.4396 173.383 19.2128 174.816 18.3306C176.277 17.4484 177.931 17.0073 179.778 17.0073ZM186.188 25.6086C185.912 23.5961 185.237 22.0937 184.162 21.1012C183.087 20.0812 181.625 19.5711 179.778 19.5711C177.986 19.5711 176.512 20.1501 175.354 21.308C174.223 22.4383 173.507 23.8718 173.203 25.6086H186.188Z" fill="#F5E747"/>
<path fill-rule="evenodd" clip-rule="evenodd" d="M26.2118 37.0219V17.6689H29.0237V20.5223C29.8232 19.4195 30.8019 18.5511 31.9598 17.9171C33.1176 17.3105 34.3858 17.0073 35.7642 17.0073C37.6113 17.0073 39.2654 17.4484 40.7265 18.3306C42.1876 19.2128 43.3317 20.4396 44.1588 22.0109C44.9858 23.5823 45.3993 25.3743 45.3993 27.3868C45.3993 29.3717 44.9996 31.1361 44.2001 32.6799C43.3731 34.2513 42.2428 35.4781 40.8092 36.3602C39.3481 37.2424 37.694 37.6835 35.8469 37.6835C34.4409 37.6835 33.159 37.3665 32.0011 36.7324C30.8157 36.1259 29.8232 35.2575 29.0237 34.1272V37.0219H26.2118ZM32.3319 20.5636C33.352 19.902 34.5236 19.5712 35.8469 19.5712C37.1426 19.5712 38.3005 19.902 39.3205 20.5636C40.3405 21.2252 41.14 22.1488 41.719 23.3342C42.2979 24.5197 42.5874 25.8705 42.5874 27.3868C42.5874 28.8755 42.2979 30.1987 41.719 31.3566C41.14 32.542 40.3405 33.4656 39.3205 34.1272C38.3005 34.7889 37.1426 35.1197 35.8469 35.1197C34.5236 35.1197 33.352 34.7889 32.3319 34.1272C31.2843 33.4656 30.4711 32.542 29.8921 31.3566C29.3132 30.1712 29.0237 28.8341 29.0237 27.3454C29.0237 25.8567 29.3132 24.5197 29.8921 23.3342C30.4711 22.1488 31.2843 21.2252 32.3319 20.5636Z" fill="#F5E747"/>
<path d="M56.9593 37.0012C55.6084 37.0012 54.3679 36.7255 53.2376 36.1742C52.0797 35.6228 51.1699 34.8095 50.5083 33.7344C49.8191 32.6592 49.4745 31.3911 49.4745 29.9299V16.9866H52.2865V28.6894C52.2865 32.5214 53.9957 34.4374 57.4142 34.4374C59.3991 34.4374 60.8878 33.7344 61.8802 32.3284C62.8727 30.9224 63.3689 29.034 63.3689 26.6631V16.9866H66.1809V47.0085H63.3689V33.1141C62.7073 34.3546 61.8389 35.3058 60.7637 35.9674C59.661 36.6566 58.3928 37.0012 56.9593 37.0012Z" fill="#F5E747"/>
<path d="M103.797 17.0073C105.148 17.0073 106.389 17.283 107.519 17.8343C108.677 18.3857 109.587 19.199 110.248 20.2741C110.938 21.3493 111.282 22.6174 111.282 24.0786V37.0219H108.47V25.3191C108.47 21.4871 106.761 19.5711 103.343 19.5711C101.358 19.5711 99.8689 20.2741 98.8765 21.6801C97.884 23.0861 97.3878 24.9745 97.3878 27.3454V37.0219H94.5758V7H97.3878V20.8944C98.0494 19.6539 98.9178 18.7028 99.993 18.0411C101.096 17.3519 102.364 17.0073 103.797 17.0073Z" fill="#F5E747"/>
<path fill-rule="evenodd" clip-rule="evenodd" d="M134.654 17.6689V37.0219H131.842V34.1686C131.042 35.2713 130.064 36.1397 128.906 36.7738C127.748 37.3803 126.48 37.6835 125.101 37.6835C123.254 37.6835 121.6 37.2424 120.139 36.3602C118.678 35.4781 117.534 34.2513 116.707 32.6799C115.88 31.1085 115.466 29.3165 115.466 27.3041C115.466 25.3191 115.866 23.5548 116.665 22.0109C117.493 20.4396 118.623 19.2128 120.056 18.3306C121.517 17.4484 123.172 17.0073 125.019 17.0073C126.425 17.0073 127.707 17.3243 128.864 17.9584C130.05 18.5649 131.042 19.4333 131.842 20.5636V17.6689H134.654ZM128.534 34.1272C127.514 34.7888 126.342 35.1197 125.019 35.1197C123.723 35.1197 122.565 34.7888 121.545 34.1272C120.525 33.4656 119.726 32.542 119.147 31.3566C118.568 30.1712 118.278 28.8203 118.278 27.3041C118.278 25.8154 118.568 24.4921 119.147 23.3342C119.726 22.1488 120.525 21.2252 121.545 20.5636C122.565 19.902 123.723 19.5711 125.019 19.5711C126.342 19.5711 127.514 19.902 128.534 20.5636C129.581 21.2252 130.394 22.1488 130.973 23.3342C131.552 24.5197 131.842 25.8567 131.842 27.3454C131.842 28.8341 131.552 30.1712 130.973 31.3566C130.394 32.542 129.581 33.4656 128.534 34.1272Z" fill="#F5E747"/>
<path d="M7 37.0219V8.81951H10.1014V34.458H22.7966V37.0219H7Z" stroke="#E73C70" stroke-width="14" stroke-linejoin="round" mask="url(#path-1-outside-1)"/>
<path d="M89.3841 17.6689V36.2775C89.3841 38.0143 89.0258 39.5582 88.309 40.909C87.5922 42.2874 86.586 43.3626 85.2903 44.1345C83.9945 44.9064 82.5196 45.2924 80.8655 45.2924H72.8432V42.7285H80.8655C82.5472 42.7285 83.9118 42.122 84.9594 40.909C86.0346 39.696 86.5722 38.1522 86.5722 36.2775V34.1686C85.7727 35.2713 84.794 36.1397 83.6362 36.7738C82.4783 37.3803 81.2101 37.6835 79.8317 37.6835C77.9846 37.6835 76.3306 37.2424 74.8694 36.3602C73.4083 35.4781 72.2642 34.2513 71.4372 32.6799C70.6101 31.1085 70.1966 29.3165 70.1966 27.3041C70.1966 25.3191 70.5963 23.5548 71.3958 22.0109C72.2229 20.4396 73.3532 19.2128 74.7867 18.3306C76.2478 17.4484 77.9019 17.0073 79.749 17.0073C81.155 17.0073 82.4369 17.3243 83.5948 17.9584C84.7802 18.5649 85.7727 19.4333 86.5722 20.5636V17.6689H89.3841ZM79.749 35.1197C81.0723 35.1197 82.244 34.7888 83.264 34.1272C84.3116 33.4656 85.1248 32.542 85.7038 31.3566C86.2827 30.1712 86.5722 28.8341 86.5722 27.3454C86.5722 25.8567 86.2827 24.5197 85.7038 23.3342C85.1248 22.1488 84.3116 21.2252 83.264 20.5636C82.244 19.902 81.0723 19.5711 79.749 19.5711C78.4533 19.5711 77.2954 19.902 76.2754 20.5636C75.2554 21.2252 74.4559 22.1488 73.877 23.3342C73.298 24.4921 73.0086 25.8154 73.0086 27.3041C73.0086 28.8203 73.298 30.1712 73.877 31.3566C74.4559 32.542 75.2554 33.4656 76.2754 34.1272C77.2954 34.7888 78.4533 35.1197 79.749 35.1197Z" stroke="#E73C70" stroke-width="14" stroke-linejoin="round" mask="url(#path-1-outside-1)"/>
<path d="M149.522 17.0073C151.369 17.0073 153.009 17.4484 154.443 18.3306C155.904 19.2128 157.034 20.4396 157.834 22.0109C158.661 23.5548 159.074 25.3191 159.074 27.3041C159.074 29.3165 158.661 31.1085 157.834 32.6799C157.007 34.2513 155.863 35.4781 154.402 36.3602C152.94 37.2424 151.286 37.6835 149.439 37.6835C148.061 37.6835 146.793 37.3803 145.635 36.7738C144.477 36.1397 143.498 35.2713 142.699 34.1686V37.0219H139.887V7H142.699V20.5636C143.498 19.4333 144.477 18.5649 145.635 17.9584C146.82 17.3243 148.116 17.0073 149.522 17.0073ZM149.522 35.1197C150.818 35.1197 151.976 34.7888 152.996 34.1272C154.016 33.4656 154.815 32.542 155.394 31.3566C155.973 30.1712 156.262 28.8203 156.262 27.3041C156.262 25.8154 155.973 24.4921 155.394 23.3342C154.815 22.1488 154.016 21.2252 152.996 20.5636C151.976 19.902 150.818 19.5711 149.522 19.5711C148.199 19.5711 147.013 19.902 145.966 20.5636C144.946 21.2252 144.146 22.1488 143.567 23.3342C142.988 24.5197 142.699 25.8567 142.699 27.3454C142.699 28.8341 142.988 30.1712 143.567 31.3566C144.146 32.542 144.946 33.4656 145.966 34.1272C147.013 34.7888 148.199 35.1197 149.522 35.1197Z" stroke="#E73C70" stroke-width="14" stroke-linejoin="round" mask="url(#path-1-outside-1)"/>
<path d="M163.232 37.0219V7H166.044V37.0219H163.232Z" stroke="#E73C70" stroke-width="14" stroke-linejoin="round" mask="url(#path-1-outside-1)"/>
<path d="M179.778 17.0073C181.515 17.0073 183.087 17.4346 184.493 18.2892C185.899 19.1438 187.001 20.3155 187.801 21.8042C188.6 23.2653 189 24.9056 189 26.7251C189 27.2489 188.986 27.6487 188.959 27.9243H173.038C173.148 29.9093 173.796 31.6047 174.982 33.0107C176.167 34.4167 177.78 35.1197 179.82 35.1197C181.474 35.1197 182.838 34.8164 183.914 34.2099C185.016 33.5758 185.899 32.7074 186.56 31.6047L188.793 33.0934C187.883 34.527 186.684 35.6573 185.196 36.4843C183.707 37.2838 181.943 37.6835 179.902 37.6835C178.028 37.6835 176.36 37.2424 174.899 36.3602C173.438 35.4781 172.294 34.2513 171.467 32.6799C170.639 31.1085 170.226 29.3303 170.226 27.3454C170.226 25.3605 170.626 23.5823 171.425 22.0109C172.252 20.4396 173.383 19.2128 174.816 18.3306C176.277 17.4484 177.931 17.0073 179.778 17.0073ZM186.188 25.6086C185.912 23.5961 185.237 22.0937 184.162 21.1012C183.087 20.0812 181.625 19.5711 179.778 19.5711C177.986 19.5711 176.512 20.1501 175.354 21.308C174.223 22.4383 173.507 23.8718 173.203 25.6086H186.188Z" stroke="#E73C70" stroke-width="14" stroke-linejoin="round" mask="url(#path-1-outside-1)"/>
<path fill-rule="evenodd" clip-rule="evenodd" d="M26.2118 37.0219V17.6689H29.0237V20.5223C29.8232 19.4195 30.8019 18.5511 31.9598 17.9171C33.1176 17.3105 34.3858 17.0073 35.7642 17.0073C37.6113 17.0073 39.2654 17.4484 40.7265 18.3306C42.1876 19.2128 43.3317 20.4396 44.1588 22.0109C44.9858 23.5823 45.3993 25.3743 45.3993 27.3868C45.3993 29.3717 44.9996 31.1361 44.2001 32.6799C43.3731 34.2513 42.2428 35.4781 40.8092 36.3602C39.3481 37.2424 37.694 37.6835 35.8469 37.6835C34.4409 37.6835 33.159 37.3665 32.0011 36.7324C30.8157 36.1259 29.8232 35.2575 29.0237 34.1272V37.0219H26.2118ZM32.3319 20.5636C33.352 19.902 34.5236 19.5712 35.8469 19.5712C37.1426 19.5712 38.3005 19.902 39.3205 20.5636C40.3405 21.2252 41.14 22.1488 41.719 23.3342C42.2979 24.5197 42.5874 25.8705 42.5874 27.3868C42.5874 28.8755 42.2979 30.1987 41.719 31.3566C41.14 32.542 40.3405 33.4656 39.3205 34.1272C38.3005 34.7889 37.1426 35.1197 35.8469 35.1197C34.5236 35.1197 33.352 34.7889 32.3319 34.1272C31.2843 33.4656 30.4711 32.542 29.8921 31.3566C29.3132 30.1712 29.0237 28.8341 29.0237 27.3454C29.0237 25.8567 29.3132 24.5197 29.8921 23.3342C30.4711 22.1488 31.2843 21.2252 32.3319 20.5636Z" stroke="#E73C70" stroke-width="14" stroke-linejoin="round" mask="url(#path-1-outside-1)"/>
<path d="M56.9593 37.0012C55.6084 37.0012 54.3679 36.7255 53.2376 36.1742C52.0797 35.6228 51.1699 34.8095 50.5083 33.7344C49.8191 32.6592 49.4745 31.3911 49.4745 29.9299V16.9866H52.2865V28.6894C52.2865 32.5214 53.9957 34.4374 57.4142 34.4374C59.3991 34.4374 60.8878 33.7344 61.8802 32.3284C62.8727 30.9224 63.3689 29.034 63.3689 26.6631V16.9866H66.1809V47.0085H63.3689V33.1141C62.7073 34.3546 61.8389 35.3058 60.7637 35.9674C59.661 36.6566 58.3928 37.0012 56.9593 37.0012Z" stroke="#E73C70" stroke-width="14" stroke-linejoin="round" mask="url(#path-1-outside-1)"/>
<path d="M103.797 17.0073C105.148 17.0073 106.389 17.283 107.519 17.8343C108.677 18.3857 109.587 19.199 110.248 20.2741C110.938 21.3493 111.282 22.6174 111.282 24.0786V37.0219H108.47V25.3191C108.47 21.4871 106.761 19.5711 103.343 19.5711C101.358 19.5711 99.8689 20.2741 98.8765 21.6801C97.884 23.0861 97.3878 24.9745 97.3878 27.3454V37.0219H94.5758V7H97.3878V20.8944C98.0494 19.6539 98.9178 18.7028 99.993 18.0411C101.096 17.3519 102.364 17.0073 103.797 17.0073Z" stroke="#E73C70" stroke-width="14" stroke-linejoin="round" mask="url(#path-1-outside-1)"/>
<path fill-rule="evenodd" clip-rule="evenodd" d="M134.654 17.6689V37.0219H131.842V34.1686C131.042 35.2713 130.064 36.1397 128.906 36.7738C127.748 37.3803 126.48 37.6835 125.101 37.6835C123.254 37.6835 121.6 37.2424 120.139 36.3602C118.678 35.4781 117.534 34.2513 116.707 32.6799C115.88 31.1085 115.466 29.3165 115.466 27.3041C115.466 25.3191 115.866 23.5548 116.665 22.0109C117.493 20.4396 118.623 19.2128 120.056 18.3306C121.517 17.4484 123.172 17.0073 125.019 17.0073C126.425 17.0073 127.707 17.3243 128.864 17.9584C130.05 18.5649 131.042 19.4333 131.842 20.5636V17.6689H134.654ZM128.534 34.1272C127.514 34.7888 126.342 35.1197 125.019 35.1197C123.723 35.1197 122.565 34.7888 121.545 34.1272C120.525 33.4656 119.726 32.542 119.147 31.3566C118.568 30.1712 118.278 28.8203 118.278 27.3041C118.278 25.8154 118.568 24.4921 119.147 23.3342C119.726 22.1488 120.525 21.2252 121.545 20.5636C122.565 19.902 123.723 19.5711 125.019 19.5711C126.342 19.5711 127.514 19.902 128.534 20.5636C129.581 21.2252 130.394 22.1488 130.973 23.3342C131.552 24.5197 131.842 25.8567 131.842 27.3454C131.842 28.8341 131.552 30.1712 130.973 31.3566C130.394 32.542 129.581 33.4656 128.534 34.1272Z" stroke="#E73C70" stroke-width="14" stroke-linejoin="round" mask="url(#path-1-outside-1)"/>
<path d="M99.6027 17.8287C98.7269 18.3677 97.9861 19.0903 97.3793 19.9919V7V6.75H97.1293H94.3173H94.0673V7V37.0219V37.2719H94.3173H97.1293H97.3793V37.0219V27.3454C97.3793 25.0072 97.8688 23.1749 98.8222 21.8243C99.7601 20.4956 101.166 19.8211 103.084 19.8211C104.747 19.8211 105.95 20.2858 106.743 21.1746C107.541 22.0687 107.962 23.4351 107.962 25.3191V37.0219V37.2719H108.212H111.024H111.274V37.0219V24.0786C111.274 22.5775 110.919 21.2617 110.202 20.1411C109.514 19.0255 108.569 18.1805 107.369 17.6091C106.203 17.0402 104.924 16.7573 103.539 16.7573C102.064 16.7573 100.749 17.1124 99.6027 17.8287ZM99.6027 17.8287C99.6029 17.8285 99.6032 17.8284 99.6034 17.8282L99.7345 18.0411M99.6027 17.8287C99.6024 17.8288 99.6022 17.829 99.602 17.8291L99.7345 18.0411M99.7345 18.0411C98.7898 18.6225 98.0047 19.4273 97.3793 20.4556L99.7345 18.0411ZM25.7032 37.0219V37.2719H25.9532H28.7652H29.0152V37.0219V34.8621C29.7496 35.7405 30.62 36.4384 31.6256 36.9534C32.8219 37.6078 34.1445 37.9335 35.5884 37.9335C37.4771 37.9335 39.1766 37.4819 40.6799 36.5743L40.6817 36.5732C42.1555 35.6662 43.3161 34.4051 44.1628 32.7963L44.1636 32.7948C44.9839 31.2107 45.3908 29.406 45.3908 27.3868C45.3908 25.3392 44.9698 23.5064 44.1215 21.8945C43.2741 20.2845 42.0989 19.0233 40.5972 18.1166C39.0939 17.2089 37.3944 16.7573 35.5057 16.7573C34.0891 16.7573 32.7809 17.0693 31.5852 17.6956L31.5852 17.6956L31.5812 17.6978C30.6003 18.2349 29.7448 18.9355 29.0152 19.7979V17.6689V17.4189H28.7652H25.9532H25.7032V17.6689V37.0219ZM32.2069 20.775L32.2069 20.775L32.2095 20.7733C33.1854 20.1403 34.3089 19.8212 35.5884 19.8212C36.8391 19.8212 37.9491 20.1397 38.9259 20.7733C39.9047 21.4082 40.675 22.2957 41.2358 23.4439C41.7957 24.5904 42.0788 25.9028 42.0788 27.3868C42.0788 28.8425 41.796 30.1265 41.2368 31.2448L41.2358 31.2469C40.675 32.3952 39.9047 33.2826 38.9259 33.9175C37.9491 34.5511 36.8391 34.8697 35.5884 34.8697C34.3089 34.8697 33.1854 34.5505 32.2095 33.9175L32.2069 33.9158C31.2011 33.2806 30.4182 32.3935 29.8583 31.2469C29.298 30.0998 29.0152 28.801 29.0152 27.3454C29.0152 25.8898 29.298 24.5911 29.8583 23.4439C30.4182 22.2974 31.2011 21.4102 32.2069 20.775ZM49.216 16.7366H48.966V16.9866V29.9299C48.966 31.4309 49.3203 32.7467 50.038 33.8673C50.7251 34.983 51.671 35.828 52.8706 36.3994C54.0372 36.9683 55.3153 37.2512 56.7008 37.2512C58.1759 37.2512 59.4906 36.8961 60.6369 36.1798C61.5127 35.6408 62.2535 34.9182 62.8604 34.0166V47.0085V47.2585H63.1104H65.9224H66.1724V47.0085V16.9866V16.7366H65.9224H63.1104H62.8604V16.9866V26.6631C62.8604 29.0013 62.3708 30.8336 61.4175 32.1842C60.4795 33.5129 59.0737 34.1874 57.1556 34.1874C55.4928 34.1874 54.2892 33.7227 53.4964 32.8339C52.6987 31.9398 52.2779 30.5734 52.2779 28.6894V16.9866V16.7366H52.0279H49.216ZM134.645 17.6689V17.4189H134.395H131.583H131.333V17.6689V19.8287C130.599 18.9503 129.729 18.2525 128.723 17.7374C127.527 17.083 126.204 16.7573 124.76 16.7573C122.871 16.7573 121.172 17.2089 119.669 18.1166L119.667 18.1177C118.193 19.0247 117.032 20.2857 116.186 21.8945L116.185 21.896C115.365 23.4801 114.958 25.2848 114.958 27.3041C114.958 29.3516 115.379 31.1845 116.227 32.7963C117.074 34.4063 118.25 35.6676 119.751 36.5743C121.255 37.4819 122.954 37.9335 124.843 37.9335C126.259 37.9335 127.568 37.6215 128.763 36.9953L128.767 36.993C129.748 36.4559 130.604 35.7553 131.333 34.893V37.0219V37.2719H131.583H134.395H134.645V37.0219V17.6689ZM128.142 33.9158L128.139 33.9175C127.163 34.5505 126.04 34.8697 124.76 34.8697C123.509 34.8697 122.399 34.5511 121.423 33.9175C120.444 33.2826 119.674 32.3952 119.113 31.2469C118.553 30.1004 118.27 28.788 118.27 27.3041C118.27 25.8483 118.553 24.5643 119.112 23.446L119.113 23.4439C119.674 22.2957 120.444 21.4082 121.423 20.7733C122.399 20.1397 123.509 19.8211 124.76 19.8211C126.04 19.8211 127.163 20.1403 128.139 20.7734L128.142 20.775C129.147 21.4102 129.93 22.2974 130.49 23.4439C131.05 24.591 131.333 25.8898 131.333 27.3454C131.333 28.801 131.05 30.0998 130.49 31.2469C129.93 32.3935 129.147 33.2806 128.142 33.9158Z" fill="#600060" stroke="#E73C70" stroke-width="0.5"/>
</svg>
